<svg xmlns="http://www.w3.org/2000/svg" width="99.887" height="99.887" viewBox="0 0 99.887 99.887"><defs><style>.a{fill:none;}.b{fill:#94f2dd;opacity:0.5;}.b,.c,.d{fill-rule:evenodd;}.c,.d{fill:#44d7b6;}.c{opacity:0.7;}.d{opacity:0.6;}</style></defs><g transform="translate(-755.113 -322)"><rect class="a" width="99.887" height="99.887" transform="translate(755.113 322)"/><path class="b" d="M6.581,4H64.848a2.081,2.081,0,0,1,1.665,3.33L44.039,37.3c0,31.24-.195,30.439-.234,33.057-1.368-.625-2.489-.961-16.414-7.923V37.3L4.916,7.33A2.081,2.081,0,0,1,6.581,4Z" transform="translate(769.342 334.648)"/><path class="c" d="M44.039,66.3v5.091a2.081,2.081,0,0,1-3.012,1.861L27.391,66.429V58.161C35.791,62.356,35.568,62.133,44.039,66.3Z" transform="translate(769.342 341.648)"/><path class="d" d="M5.545,4H34.8a1.045,1.045,0,0,1,.836,1.672L24.351,20.716c-2.408,2.765-6.693,2.357-8.358,0L4.709,5.672A1.045,1.045,0,0,1,5.545,4Z" transform="translate(784.385 342.963)"/></g></svg>