<svg xmlns="http://www.w3.org/2000/svg" width="95.555" height="95.555" viewBox="0 0 95.555 95.555"><defs><style>.a{fill:none;}.b{fill:#f9d677;opacity:0.4;}.b,.c{fill-rule:evenodd;}.c,.d{fill:#f7b500;}.d{opacity:0.3;}</style></defs><rect class="a" width="95.555" height="95.555"/><path class="b" d="M19.926,3V4.991A5.972,5.972,0,0,0,25.9,10.963H45.805a5.972,5.972,0,0,0,5.972-5.972V3H59.74A7.963,7.963,0,0,1,67.7,10.963v63.7a7.963,7.963,0,0,1-7.963,7.963H11.963A7.963,7.963,0,0,1,4,74.666v-63.7A7.963,7.963,0,0,1,11.963,3Z" transform="translate(11.926 8.944)"/><path class="c" d="M16.963,4.981a3.981,3.981,0,0,1,7.963,0H30.9a1.991,1.991,0,0,1,1.991,1.991v3.981A1.991,1.991,0,0,1,30.9,12.944H10.991A1.991,1.991,0,0,1,9,10.954V6.972a1.991,1.991,0,0,1,1.991-1.991Z" transform="translate(26.833 2.981)"/><rect class="d" width="27.87" height="7.963" rx="1" transform="translate(39.815 35.833)"/><rect class="d" width="7.963" height="7.963" rx="1" transform="translate(27.87 35.833)"/><rect class="d" width="7.963" height="7.963" rx="1" transform="translate(27.87 51.759)"/><rect class="d" width="27.87" height="7.963" rx="1" transform="translate(39.815 51.759)"/><rect class="d" width="7.963" height="7.963" rx="1" transform="translate(27.87 67.685)"/><rect class="d" width="27.87" height="7.963" rx="1" transform="translate(39.815 67.685)"/></svg>