<svg xmlns="http://www.w3.org/2000/svg" width="160" height="130" viewBox="0 0 160 130"><defs><style>.a{fill:#fff;opacity:0;}.b{fill:#ff91ba;opacity:0.5;}.b,.c{fill-rule:evenodd;}.c{fill:#f13b7f;opacity:0.9;}</style></defs><g transform="translate(-1455 -151)"><g transform="translate(649 -1006)"><rect class="a" width="160" height="130" transform="translate(806 1157)"/></g><g transform="translate(1485.445 158.588)"><path class="b" d="M53.563,64.944,46.589,77.567a4.13,4.13,0,0,1-7.056.285L30.976,64.944H14.389A12.389,12.389,0,0,1,2,52.555V15.389A12.389,12.389,0,0,1,14.389,3H72.2A12.389,12.389,0,0,1,84.592,15.389V52.555A12.389,12.389,0,0,1,72.2,64.944Z" transform="translate(6.259 9.389)"/><path class="c" d="M9.13,7H46.3a4.13,4.13,0,1,1,0,8.259H9.13A4.13,4.13,0,1,1,9.13,7Zm0,16.518H29.778a4.13,4.13,0,1,1,0,8.259H9.13a4.13,4.13,0,0,1,0-8.259Z" transform="translate(17.648 21.907)"/></g></g></svg>