<svg xmlns="http://www.w3.org/2000/svg" xmlns:xlink="http://www.w3.org/1999/xlink" width="160" height="130" viewBox="0 0 160 130"><defs><style>.a{fill:#fff;opacity:0;}.b{fill:url(#a);}</style><linearGradient id="a" x1="-1.143" y1="1.134" x2="1.546" y2="1" gradientUnits="objectBoundingBox"><stop offset="0" stop-color="#372f8f"/><stop offset="0.385" stop-color="#872083"/><stop offset="0.757" stop-color="#d51277"/><stop offset="1" stop-color="#ff0080"/></linearGradient></defs><g transform="translate(-1085 -546)"><rect class="a" width="160" height="130" transform="translate(1085 546)"/><path class="b" d="M49.61,32.713a10.323,10.323,0,0,1-3.373-2.373,10.712,10.712,0,0,1-2.2-3.479,11.622,11.622,0,0,1,0-8.327,10.712,10.712,0,0,1,2.2-3.479,10.265,10.265,0,0,1,3.393-2.373A10.753,10.753,0,0,1,54,11.816a10.516,10.516,0,0,1,9.915,6.718,11.61,11.61,0,0,1,0,8.327A10.725,10.725,0,0,1,61.72,30.34a10.278,10.278,0,0,1-3.394,2.373,10.751,10.751,0,0,1-4.369.865A10.607,10.607,0,0,1,49.61,32.713Zm.813-16.754a7.82,7.82,0,0,0-2.54,2.827,8.2,8.2,0,0,0-.955,3.971,8.118,8.118,0,0,0,.955,3.931,7.481,7.481,0,0,0,2.54,2.788,6.6,6.6,0,0,0,7.092-.021,7.55,7.55,0,0,0,2.56-2.827,8.248,8.248,0,0,0,.956-3.952,8.124,8.124,0,0,0-.956-3.929,7.591,7.591,0,0,0-2.56-2.809A6.4,6.4,0,0,0,53.958,14.9,6.211,6.211,0,0,0,50.423,15.959ZM85.395,31.8l-3.431-7L78.6,31.727a2.567,2.567,0,0,1-2.313,1.445,2.3,2.3,0,0,1-2.115-1.391L66.68,14.314A1.564,1.564,0,1,1,69.563,13.1l6.915,16.566,3.413-7.088-3.515-8.414a1.436,1.436,0,1,1,2.66-1.082L81.964,20.4l2.927-7.319a1.44,1.44,0,1,1,2.669,1.081l-3.483,8.413,3.414,7.088L94.32,13.21a1.74,1.74,0,0,1,1.607-1.071,1.509,1.509,0,0,1,1.391,2.1L89.825,31.711A2.419,2.419,0,0,1,87.6,33.172,2.456,2.456,0,0,1,85.395,31.8Zm-48.656-.367V25.178c0-2.339.4-4.9-.573-7.129a4.851,4.851,0,0,0-5.029-2.691A5.462,5.462,0,0,0,29,16.03c-3.7,2.084-2.665,6.99-2.665,10.35v5.051a1.872,1.872,0,0,1-3.735,0V20.92a17.2,17.2,0,0,1,.319-3.416,6.646,6.646,0,0,1,.226-.837C25.5,9.821,38.7,10.329,40.155,17.5a17.267,17.267,0,0,1,.318,3.416V31.431a1.872,1.872,0,0,1-3.734,0Zm-21.273.748L4.4,19.114a8.316,8.316,0,0,1-.8-1.045H3.522v13A1.76,1.76,0,0,1,0,31.07V4.608a1.76,1.76,0,0,1,3.521,0V16.94h.085a8.225,8.225,0,0,1,.8-1.024l10.749-12.5A1.623,1.623,0,1,1,17.6,5.554L7.127,17.233l11.11,12.56a1.828,1.828,0,1,1-2.771,2.385Zm92.725-9.685a.974.974,0,1,1,0-1.948h43.429a.974.974,0,1,1,0,1.948Zm26.184-5.35a8.616,8.616,0,0,1-2.8-1.947,8.9,8.9,0,0,1-1.833-2.855,9.121,9.121,0,0,1-.65-3.432,8.918,8.918,0,0,1,1.133-4.455A8.712,8.712,0,0,1,137.992,0a8.373,8.373,0,0,1,4.585,1.238,8.689,8.689,0,0,1,3.034,3.236,8.911,8.911,0,0,1,1.083,4.311c0,.22-.005.435-.016.644v.006a.5.5,0,0,1-.5.472H132.191a6.444,6.444,0,0,0,.95,2.975,6,6,0,0,0,3.066,2.479,3.792,3.792,0,0,0,.568.165,6.161,6.161,0,0,0,4.3-.664,4.534,4.534,0,0,0,1.12-.834,1.849,1.849,0,0,1,1.326-.557,1.085,1.085,0,0,1,.8,1.829c-.139.147-.286.289-.442.427a8.208,8.208,0,0,1-2.633,1.563,9.348,9.348,0,0,1-3.284.565A8.833,8.833,0,0,1,134.374,17.144Zm.784-14.226a5.861,5.861,0,0,0-2.118,2.005,6.336,6.336,0,0,0-.95,2.957H143.96a6.24,6.24,0,0,0-.967-2.957,5.994,5.994,0,0,0-2.134-2.005,5.8,5.8,0,0,0-2.867-.723A5.735,5.735,0,0,0,135.158,2.918ZM123.677,16.385V11.162c0-1.953.312-4.605-.447-6.466a3.962,3.962,0,0,0-4.1-2.247,4.049,4.049,0,0,0-1.664.561c-2.891,1.741-2.253,6.35-2.253,9.157v4.219a1.319,1.319,0,0,1-1.288,1.453h-.12a1.32,1.32,0,0,1-1.288-1.453V11.162c0-1.953.141-4.605-.617-6.466a3.739,3.739,0,0,0-3.928-2.247,4.052,4.052,0,0,0-1.665.561c-2.89,1.741-2.252,6.35-2.252,9.157v4.219a1.32,1.32,0,0,1-1.289,1.453,1.455,1.455,0,0,1-1.457-1.453V7.605a15.435,15.435,0,0,1,.248-2.853,5.665,5.665,0,0,1,.176-.7c1.546-4.808,9.075-5.274,12.11-1.74C117-1.493,125.17-.547,126.174,4.752a15.278,15.278,0,0,1,.249,2.853v8.78a1.32,1.32,0,0,1-1.288,1.453A1.456,1.456,0,0,1,123.677,16.385Z" transform="translate(1091.653 584)"/></g></svg>