<svg xmlns="http://www.w3.org/2000/svg" width="160" height="130" viewBox="0 0 160 130"><defs><style>.a{fill:none;}.b{fill:#b2f56b;}.b,.c,.d{opacity:0.3;}.c,.d,.e{fill:#6dd400;}.d,.e{fill-rule:evenodd;}.f{fill:#fff;opacity:0;}</style></defs><g transform="translate(-1102 -151)"><g transform="translate(1130.938 156.588)"><rect class="a" width="100.125" height="100.125" transform="translate(1)"/><circle class="b" cx="33.375" cy="33.375" r="33.375" transform="translate(16.688 4.172)"/><path class="c" d="M39.878,17.344H18.735L29.223,44.313ZM23.35,52.231,6.538,9H52.146L35.058,52.252l-5.835-2.305Z" transform="translate(20.738 23.547)"/><path class="d" d="M10,22H26.687a8.344,8.344,0,0,1-8.344,8.344h0A8.344,8.344,0,0,1,10,22Z" transform="translate(31.719 69.781)"/><path class="e" d="M12.172,32.687a4.172,4.172,0,0,1,0-8.344,4.172,4.172,0,1,1,0-8.344H37.2a4.172,4.172,0,1,1,0,8.344,4.172,4.172,0,0,1,0,8.344,4.172,4.172,0,0,1,0,8.344H12.172a4.172,4.172,0,0,1,0-8.344Z" transform="translate(25.375 50.75)"/></g><g transform="translate(169)"><g transform="translate(337 -1006)"><rect class="f" width="160" height="130" transform="translate(596 1157)"/></g></g></g></svg>