<svg xmlns="http://www.w3.org/2000/svg" width="160" height="130" viewBox="0 0 160 130"><defs><style>.a{fill:#fff;opacity:0;}.b{fill:#b2f56b;}.b,.c,.d{opacity:0.3;}.c,.d,.e{fill:#6dd400;}.d,.e{fill-rule:evenodd;}</style></defs><g transform="translate(-596 -1157)"><rect class="a" width="160" height="130" transform="translate(596 1157)"/><g transform="translate(629.312 1173.828)"><circle class="b" cx="30.477" cy="30.477" r="30.477" transform="translate(16.687 4.172)"/><path class="c" d="M36.983,16.619H17.676l9.577,24.628ZM21.89,48.477,6.538,9H48.186l-15.6,39.5-5.328-2.1Z" transform="translate(19.819 25.649)"/><path class="d" d="M10,22H25.239a7.619,7.619,0,0,1-7.619,7.619h0A7.619,7.619,0,0,1,10,22Z" transform="translate(29.545 62.174)"/><path class="e" d="M11.81,31.239a3.81,3.81,0,0,1,0-7.619,3.81,3.81,0,1,1,0-7.619H34.667a3.81,3.81,0,1,1,0,7.619,3.81,3.81,0,0,1,0,7.619,3.81,3.81,0,0,1,0,7.619H11.81a3.81,3.81,0,0,1,0-7.619Z" transform="translate(23.926 45.316)"/></g></g></svg>