<svg xmlns="http://www.w3.org/2000/svg" xmlns:xlink="http://www.w3.org/1999/xlink" width="160" height="130" viewBox="0 0 160 130"><defs><style>.a{fill:url(#a);}.b{fill:#fff;opacity:0;}</style><linearGradient id="a" x1="-1.143" y1="1.134" x2="1.546" y2="1" gradientUnits="objectBoundingBox"><stop offset="0" stop-color="#372f8f"/><stop offset="0.385" stop-color="#872083"/><stop offset="0.757" stop-color="#d51277"/><stop offset="1" stop-color="#ff0080"/></linearGradient></defs><g transform="translate(-596 -1340)"><g transform="translate(602.653 1388)"><g transform="translate(0 0)"><g transform="translate(0 0)"><path class="a" d="M49.61,32.714a10.317,10.317,0,0,1-3.373-2.375,10.7,10.7,0,0,1-2.2-3.479,11.266,11.266,0,0,1-.772-4.143,11.382,11.382,0,0,1,.772-4.184,10.715,10.715,0,0,1,2.2-3.479,10.28,10.28,0,0,1,3.392-2.373A10.754,10.754,0,0,1,54,11.816a10.517,10.517,0,0,1,9.917,6.718,11.372,11.372,0,0,1,.772,4.184,11.256,11.256,0,0,1-.772,4.143,10.7,10.7,0,0,1-2.2,3.479,10.282,10.282,0,0,1-3.393,2.375,10.777,10.777,0,0,1-4.369.864A10.624,10.624,0,0,1,49.61,32.714Zm.812-16.755a7.813,7.813,0,0,0-2.54,2.827,8.2,8.2,0,0,0-.956,3.971,8.119,8.119,0,0,0,.956,3.931,7.471,7.471,0,0,0,2.54,2.787,6.608,6.608,0,0,0,7.091-.019,7.568,7.568,0,0,0,2.561-2.828,8.252,8.252,0,0,0,.954-3.951,8.133,8.133,0,0,0-.954-3.93,7.6,7.6,0,0,0-2.561-2.809,6.4,6.4,0,0,0-3.556-1.043A6.2,6.2,0,0,0,50.422,15.959ZM85.395,31.8l-3.432-7L78.6,31.726a2.571,2.571,0,0,1-2.314,1.447,2.3,2.3,0,0,1-2.115-1.393L66.681,14.314A1.564,1.564,0,1,1,69.563,13.1l6.914,16.566,3.414-7.088-3.517-8.414a1.436,1.436,0,1,1,2.661-1.082L81.963,20.4l2.927-7.318a1.441,1.441,0,1,1,2.671,1.081l-3.485,8.413,3.414,7.088,6.83-16.456a1.742,1.742,0,0,1,1.607-1.071,1.509,1.509,0,0,1,1.391,2.1L89.824,31.711A2.419,2.419,0,0,1,87.6,33.173,2.458,2.458,0,0,1,85.395,31.8Zm-48.656-.368V25.178c0-2.339.4-4.9-.573-7.128a4.855,4.855,0,0,0-5.03-2.691,5.473,5.473,0,0,0-2.131.671c-3.7,2.085-2.666,6.991-2.666,10.351v5.05a1.873,1.873,0,0,1-3.736,0V20.919a17.3,17.3,0,0,1,.318-3.415,6.693,6.693,0,0,1,.227-.836C25.5,9.821,38.7,10.328,40.155,17.5a17.269,17.269,0,0,1,.317,3.415V31.431a1.871,1.871,0,0,1-3.734,0Zm-21.274.748L4.4,19.115a8.252,8.252,0,0,1-.8-1.046H3.522v13A1.761,1.761,0,0,1,0,31.07V4.608a1.761,1.761,0,0,1,3.522,0V16.939h.083a8.447,8.447,0,0,1,.8-1.023L15.15,3.418A1.624,1.624,0,1,1,17.6,5.554L7.127,17.232,18.236,29.794a1.828,1.828,0,1,1-2.771,2.385Zm86.822-9.685a.974.974,0,1,1,0-1.947h43.429a.974.974,0,1,1,0,1.947Zm32.088-5.349a8.633,8.633,0,0,1-2.8-1.947,8.9,8.9,0,0,1-1.833-2.855,9.127,9.127,0,0,1-.65-3.432,8.92,8.92,0,0,1,1.133-4.455A8.709,8.709,0,0,1,137.991,0a8.36,8.36,0,0,1,4.585,1.238,8.674,8.674,0,0,1,3.034,3.235,8.913,8.913,0,0,1,1.084,4.311c0,.219-.007.434-.017.644v.005a.5.5,0,0,1-.5.473H132.191a6.432,6.432,0,0,0,.95,2.974,6,6,0,0,0,3.066,2.479,3.83,3.83,0,0,0,.569.165,6.166,6.166,0,0,0,4.3-.665,4.542,4.542,0,0,0,1.12-.835,1.844,1.844,0,0,1,1.325-.556,1.085,1.085,0,0,1,.8,1.83c-.139.146-.286.288-.441.426a8.243,8.243,0,0,1-2.634,1.563,9.357,9.357,0,0,1-3.284.565A8.846,8.846,0,0,1,134.375,17.145Zm.783-14.226a5.853,5.853,0,0,0-2.117,2,6.334,6.334,0,0,0-.95,2.957H143.96a6.252,6.252,0,0,0-.968-2.957,5.975,5.975,0,0,0-2.132-2,5.8,5.8,0,0,0-2.868-.723A5.725,5.725,0,0,0,135.158,2.918Zm-11.48,13.466V11.162c0-1.953.312-4.607-.448-6.465a3.963,3.963,0,0,0-4.1-2.248,4.073,4.073,0,0,0-1.665.562c-2.89,1.741-2.252,6.349-2.252,9.156v4.218a1.32,1.32,0,0,1-1.288,1.454h-.121a1.319,1.319,0,0,1-1.287-1.454V11.162c0-1.953.14-4.607-.619-6.465a3.737,3.737,0,0,0-3.927-2.248,4.067,4.067,0,0,0-1.665.562c-2.891,1.741-2.253,6.349-2.253,9.156v4.218a1.319,1.319,0,0,1-1.287,1.454,1.456,1.456,0,0,1-1.458-1.454V7.606a15.4,15.4,0,0,1,.249-2.853,5.842,5.842,0,0,1,.177-.7c1.546-4.808,9.075-5.274,12.11-1.74C117-1.494,125.169-.548,126.173,4.752a15.2,15.2,0,0,1,.25,2.853v8.779a1.319,1.319,0,0,1-1.288,1.454A1.455,1.455,0,0,1,123.678,16.385Z" transform="translate(0)"/></g></g></g><rect class="b" width="160" height="130" transform="translate(596 1340)"/></g></svg>