<svg xmlns="http://www.w3.org/2000/svg" width="160" height="130" viewBox="0 0 160 130"><defs><style>.a{fill:#fff;opacity:0;}.b{fill:#f9d677;opacity:0.4;}.b,.c{fill-rule:evenodd;}.c,.d{fill:#f7b500;}.d{opacity:0.3;}</style></defs><g transform="translate(-1226 -1157)"><rect class="a" width="160" height="130" transform="translate(1226 1157)"/><g transform="translate(1260.585 1178.383)"><path class="b" d="M18.468,3V4.809a5.426,5.426,0,0,0,5.426,5.426H41.979A5.426,5.426,0,0,0,47.4,4.809V3h7.234a7.234,7.234,0,0,1,7.234,7.234V68.107a7.234,7.234,0,0,1-7.234,7.234h-43.4A7.234,7.234,0,0,1,4,68.107V10.234A7.234,7.234,0,0,1,11.234,3Z" transform="translate(10.468 7.851)"/><path class="c" d="M16.234,4.617a3.617,3.617,0,0,1,7.234,0h5.426A1.809,1.809,0,0,1,30.7,6.426v3.617a1.809,1.809,0,0,1-1.809,1.809H10.809A1.809,1.809,0,0,1,9,10.043V6.426a1.809,1.809,0,0,1,1.809-1.809Z" transform="translate(23.554 2.617)"/><rect class="d" width="25.32" height="7.234" rx="1" transform="translate(36.171 32.554)"/><rect class="d" width="7.234" height="7.234" rx="1" transform="translate(25.32 32.554)"/><rect class="d" width="7.234" height="7.234" rx="1" transform="translate(25.32 47.022)"/><rect class="d" width="25.32" height="7.234" rx="1" transform="translate(36.171 47.022)"/><rect class="d" width="7.234" height="7.234" rx="1" transform="translate(25.32 61.49)"/><rect class="d" width="25.32" height="7.234" rx="1" transform="translate(36.171 61.49)"/></g></g></svg>