<svg xmlns="http://www.w3.org/2000/svg" width="100.125" height="100.125" viewBox="0 0 100.125 100.125"><defs><style>.a,.d{fill:none;}.a{fill-rule:evenodd;}.b{fill:#a78ffc;opacity:0.3;}.c{fill:#6236ff;}</style></defs><g transform="translate(-1361 -322)"><g transform="translate(1369 330)"><path class="a" d="M0,0H84.6V84.6H0Z"/><path class="b" d="M9.547,1H33.8a5.288,5.288,0,0,1,3.415,1.25L54,16.454a5.288,5.288,0,0,1,1.873,4.037V64.745c0,6.312-.072,6.756-6.547,6.756H9.547C3.072,71.5,3,71.057,3,64.745V7.756C3,1.445,3.072,1,9.547,1ZM20.625,39.776a3.525,3.525,0,1,0,0,7.05H45.3a3.525,3.525,0,0,0,0-7.05Zm0,14.1a3.525,3.525,0,1,0,0,7.05H31.2a3.525,3.525,0,1,0,0-7.05Z" transform="translate(7.794 2.635)"/><path class="c" d="M11.547,3H39.322a5.288,5.288,0,0,1,3.415,1.25l16.792,14.2A5.288,5.288,0,0,1,61.4,22.491V66.745c0,6.312-.072,6.756-6.547,6.756H11.547C5.072,73.5,5,73.057,5,66.745V9.756C5,3.445,5.072,3,11.547,3Zm4.029,31.726a3.525,3.525,0,1,0,0,7.05H40.251a3.525,3.525,0,1,0,0-7.05Zm0,14.1a3.525,3.525,0,1,0,0,7.05H26.15a3.525,3.525,0,1,0,0-7.05Z" transform="translate(12.625 7.575)"/></g><rect class="d" width="100.125" height="100.125" transform="translate(1361 322)"/></g></svg>