<svg xmlns="http://www.w3.org/2000/svg" width="100" height="100" viewBox="0 0 100 100"><defs><style>.a{fill:none;}.b{fill:#ff808b;fill-rule:evenodd;}.c{fill:#f6bdc2;opacity:0.7;}</style></defs><rect class="a" width="100" height="100"/><path class="b" d="M6.338,4H80.083a4.338,4.338,0,0,1,4.338,4.338v8.676a4.338,4.338,0,0,1-4.338,4.338H6.338A4.338,4.338,0,0,1,2,17.014V8.338A4.338,4.338,0,0,1,6.338,4Zm0,26.028H49.717a4.338,4.338,0,0,1,4.338,4.338v34.7a4.338,4.338,0,0,1-4.338,4.338H6.338A4.338,4.338,0,0,1,2,69.069v-34.7A4.338,4.338,0,0,1,6.338,30.028Z" transform="translate(6.676 13.352)"/><rect class="c" width="21.69" height="43.379" rx="1" transform="translate(69.407 43.379)"/></svg>