<svg xmlns="http://www.w3.org/2000/svg" xmlns:xlink="http://www.w3.org/1999/xlink" width="160" height="130" viewBox="0 0 160 130"><defs><style>.a{fill:none;stroke:#c20219;stroke-miterlimit:10;stroke-width:1.5px;}.b{fill:url(#a);}.c,.d{fill:#fff;}.d{opacity:0;}</style><linearGradient id="a" x1="0.018" y1="0.15" x2="0.659" y2="0.476" gradientUnits="objectBoundingBox"><stop offset="0" stop-color="#89071b"/><stop offset="1" stop-color="#e50019"/></linearGradient></defs><g transform="translate(-176 -1340)"><g transform="translate(183 1375)"><path class="a" d="M302.287,147.993H204.2c-13.31,0-24.1,10.236-24.1,22.863h0c0,12.627,10.791,22.863,24.1,22.863h74.781a2.66,2.66,0,0,1,2.3,1.327l5.5,9.486a2.659,2.659,0,0,0,4.646-.08l4.987-9.326a2.661,2.661,0,0,1,2.345-1.407h3.522c13.311,0,24.1-10.236,24.1-22.863h0C326.388,158.229,315.6,147.993,302.287,147.993Z" transform="translate(-180.102 -147.993)"/><path class="b" d="M305.857,155.072H209.271c-13.108,0-23.734,10.08-23.734,22.514h0c0,12.434,10.626,22.514,23.734,22.514h73.64a2.619,2.619,0,0,1,2.266,1.306l5.416,9.341a2.618,2.618,0,0,0,4.575-.078l4.912-9.184a2.619,2.619,0,0,1,2.309-1.385h3.469c13.108,0,23.733-10.08,23.733-22.514h0C329.59,165.152,318.965,155.072,305.857,155.072Z" transform="translate(-183.393 -152.279)"/><g transform="translate(16.388 11.032)"><path class="c" d="M224.848,176.295l6.043,16.18L236.9,176.3a1.657,1.657,0,0,1,1.553-1.079h0A1.657,1.657,0,0,1,240,177.481l-6.929,17.633a2.344,2.344,0,0,1-2.181,1.487h0a2.344,2.344,0,0,1-2.18-1.484l-6.954-17.634a1.657,1.657,0,0,1,1.541-2.264h0A1.657,1.657,0,0,1,224.848,176.295Z" transform="translate(-221.637 -174.616)"/><path class="c" d="M277.734,173.691h0a1.656,1.656,0,0,1,1.656,1.656v15.835a2.212,2.212,0,0,0,.361,1.541,1.283,1.283,0,0,0,.9.332,5.048,5.048,0,0,0,1.129-.12l.011,0a.9.9,0,0,1,1.093.707l.159.865a.89.89,0,0,1-.61,1.015q-.447.135-.969.246a8.694,8.694,0,0,1-1.777.211,3.606,3.606,0,0,1-2.65-.951,3.545,3.545,0,0,1-.964-2.643V175.347A1.657,1.657,0,0,1,277.734,173.691Z" transform="translate(-253.332 -173.691)"/><path class="c" d="M304.482,205.358a8.317,8.317,0,0,1-3.343-.641,7.651,7.651,0,0,1-2.545-1.775,8.029,8.029,0,0,1-1.641-2.581,8.318,8.318,0,0,1-.572-3.089,8.437,8.437,0,0,1,.572-3.1,7.82,7.82,0,0,1,1.641-2.581,7.707,7.707,0,0,1,2.56-1.76,8.946,8.946,0,0,1,6.655,0,7.713,7.713,0,0,1,2.56,1.76,7.84,7.84,0,0,1,1.641,2.581,8.454,8.454,0,0,1,.572,3.1,8.335,8.335,0,0,1-.572,3.089,8.05,8.05,0,0,1-1.641,2.581,7.615,7.615,0,0,1-2.56,1.775A8.348,8.348,0,0,1,304.482,205.358Zm-4.7-8.057a5.6,5.6,0,0,0,.632,2.673,4.947,4.947,0,0,0,1.687,1.871,4.276,4.276,0,0,0,2.379.683,4.233,4.233,0,0,0,2.364-.7,4.993,4.993,0,0,0,1.7-1.9,5.932,5.932,0,0,0,0-5.329,5.026,5.026,0,0,0-1.7-1.886,4.236,4.236,0,0,0-2.364-.7,4.145,4.145,0,0,0-2.379.713,5.225,5.225,0,0,0-1.687,1.885A5.576,5.576,0,0,0,299.784,197.3Z" transform="translate(-264.984 -183.072)"/><path class="c" d="M349.681,205.358a6.564,6.564,0,0,1-2.921-.647,6.968,6.968,0,0,1-2.273-1.762,8.275,8.275,0,0,1-1.476-2.56,8.8,8.8,0,0,1-.527-3.042,9.1,9.1,0,0,1,.542-3.162,8.317,8.317,0,0,1,1.521-2.605,7.017,7.017,0,0,1,2.3-1.762,6.761,6.761,0,0,1,2.951-.632,6.178,6.178,0,0,1,3.328.889,7.5,7.5,0,0,1,2.364,2.334v-1.521a1.461,1.461,0,0,1,1.461-1.461h0a1.461,1.461,0,0,1,1.461,1.461v13.756a6.624,6.624,0,0,1-1.1,3.864,7,7,0,0,1-3,2.426,10.479,10.479,0,0,1-4.277.838,9.256,9.256,0,0,1-4.337-.9,8.765,8.765,0,0,1-2.027-1.466,1.28,1.28,0,0,1,.015-1.854h0a1.29,1.29,0,0,1,1.761.015,5.9,5.9,0,0,0,1.531,1.016,7.187,7.187,0,0,0,3.057.662,6.538,6.538,0,0,0,2.515-.478,4.115,4.115,0,0,0,1.852-1.478,4.348,4.348,0,0,0,.693-2.531v-2.41a5.922,5.922,0,0,1-2.319,2.213A6.432,6.432,0,0,1,349.681,205.358Zm1.084-2.68a4.134,4.134,0,0,0,1.446-.256,5.07,5.07,0,0,0,1.28-.693,4.968,4.968,0,0,0,1.009-.993,3.6,3.6,0,0,0,.6-1.19V195.42a5.4,5.4,0,0,0-1.114-1.792,5.319,5.319,0,0,0-1.626-1.19,4.314,4.314,0,0,0-1.837-.421,4,4,0,0,0-1.942.467,4.673,4.673,0,0,0-1.46,1.235,5.867,5.867,0,0,0-.934,1.731,6.075,6.075,0,0,0-.331,1.988,5.335,5.335,0,0,0,.377,2.018,5.612,5.612,0,0,0,1.039,1.672,4.655,4.655,0,0,0,3.493,1.551Z" transform="translate(-291.729 -183.072)"/><path class="c" d="M396.07,205.358a6.564,6.564,0,0,1-2.922-.647,6.967,6.967,0,0,1-2.273-1.762,8.276,8.276,0,0,1-1.476-2.56,8.806,8.806,0,0,1-.527-3.042,9.1,9.1,0,0,1,.542-3.162,8.319,8.319,0,0,1,1.521-2.605,7.018,7.018,0,0,1,2.3-1.762,6.761,6.761,0,0,1,2.951-.632,6.179,6.179,0,0,1,3.328.889,7.5,7.5,0,0,1,2.364,2.334v-1.521a1.461,1.461,0,0,1,1.461-1.461h0a1.461,1.461,0,0,1,1.461,1.461v13.756a6.624,6.624,0,0,1-1.1,3.864,7,7,0,0,1-3,2.426,10.479,10.479,0,0,1-4.277.838,9.256,9.256,0,0,1-4.337-.9,8.766,8.766,0,0,1-2.027-1.466,1.28,1.28,0,0,1,.015-1.854h0a1.29,1.29,0,0,1,1.761.015,5.9,5.9,0,0,0,1.531,1.016,7.187,7.187,0,0,0,3.057.662,6.538,6.538,0,0,0,2.515-.478,4.112,4.112,0,0,0,1.852-1.478,4.345,4.345,0,0,0,.693-2.531v-2.41a5.923,5.923,0,0,1-2.319,2.213A6.432,6.432,0,0,1,396.07,205.358Zm1.084-2.68a4.134,4.134,0,0,0,1.446-.256,5.071,5.071,0,0,0,1.28-.693,4.981,4.981,0,0,0,1.009-.993,3.607,3.607,0,0,0,.6-1.19V195.42a5.4,5.4,0,0,0-1.114-1.792,5.319,5.319,0,0,0-1.626-1.19,4.313,4.313,0,0,0-1.837-.421,4,4,0,0,0-1.942.467,4.67,4.67,0,0,0-1.461,1.235,5.868,5.868,0,0,0-.934,1.731,6.076,6.076,0,0,0-.331,1.988,5.336,5.336,0,0,0,.376,2.018,5.619,5.619,0,0,0,1.039,1.672,4.655,4.655,0,0,0,3.493,1.551Z" transform="translate(-318.634 -183.072)"/><path class="c" d="M442.432,205.358a8.329,8.329,0,0,1-3.328-.643,7.879,7.879,0,0,1-2.575-1.764,7.965,7.965,0,0,1-1.671-2.571,8.456,8.456,0,0,1,.436-7.13,7.942,7.942,0,0,1,2.861-2.948,8.126,8.126,0,0,1,4.307-1.117,7.714,7.714,0,0,1,7.047,4.056,8.026,8.026,0,0,1,.994,3.907c0,.239-.011.462-.03.671v.006a.573.573,0,0,1-.571.516H437.795a4.8,4.8,0,0,0,2.5,4,4.608,4.608,0,0,0,2.259.58,5.089,5.089,0,0,0,2.514-.663,3.815,3.815,0,0,0,1.156-.952,1.392,1.392,0,0,1,1.474-.5h0a1.363,1.363,0,0,1,.6,2.265q-.162.163-.338.319a7.736,7.736,0,0,1-2.455,1.445A8.741,8.741,0,0,1,442.432,205.358Zm-4.728-9.216h9.517a4.736,4.736,0,0,0-.768-2.347,4.883,4.883,0,0,0-1.716-1.594,4.669,4.669,0,0,0-2.3-.576,4.607,4.607,0,0,0-2.273.576,4.753,4.753,0,0,0-1.7,1.594A4.822,4.822,0,0,0,437.7,196.143Z" transform="translate(-344.221 -183.072)"/><path class="c" d="M490.345,191.36a.8.8,0,0,1-.722.8,6.81,6.81,0,0,0-2.7.832,4.756,4.756,0,0,0-2.123,2.379v7.981a1.656,1.656,0,0,1-1.656,1.656h0a1.657,1.657,0,0,1-1.656-1.656V190.917a1.536,1.536,0,0,1,1.536-1.536h0a1.536,1.536,0,0,1,1.536,1.536v1.867a7.142,7.142,0,0,1,2.138-2.605,5.2,5.2,0,0,1,2.763-1.066c.025,0,.05,0,.075,0h0a.811.811,0,0,1,.806.81Z" transform="translate(-372.81 -183.026)"/></g></g><rect class="d" width="160" height="130" transform="translate(176 1340)"/></g></svg>