<svg xmlns="http://www.w3.org/2000/svg" width="160" height="130" viewBox="0 0 160 130"><defs><style>.a{fill:none;}.b{fill:#87c5ff;opacity:0.3;}.b,.c{fill-rule:evenodd;}.c{fill:#3598f4;}.d{fill:#fff;opacity:0;}</style></defs><g transform="translate(-176 -1157)"><g transform="translate(205.731 1176)"><rect class="a" width="100.537" height="100.537" transform="translate(0 -4)"/><path class="b" d="M9.189,2H59.457a4.189,4.189,0,0,1,4.189,4.189v37.7a4.189,4.189,0,0,1-4.189,4.189H9.189A4.189,4.189,0,0,1,5,43.89V6.189A4.189,4.189,0,0,1,9.189,2Zm6.284,12.567a2.095,2.095,0,1,0,0,4.189H40.607a2.095,2.095,0,0,0,0-4.189Zm0,8.378a2.095,2.095,0,1,0,0,4.189H28.04a2.095,2.095,0,0,0,0-4.189Z" transform="translate(15.945 6.189)"/><path class="c" d="M6.321,6.875,40.7,31.7l34.38-24.83a2.095,2.095,0,0,1,3.321,1.7V50.556a8.378,8.378,0,0,1-8.378,8.378H11.378A8.378,8.378,0,0,1,3,50.556V8.573a2.095,2.095,0,0,1,3.321-1.7Z" transform="translate(9.567 20.469)"/></g><rect class="d" width="160" height="130" transform="translate(176 1157)"/></g></svg>