<svg xmlns="http://www.w3.org/2000/svg" width="160" height="130" viewBox="0 0 160 130"><defs><style>.a{fill:#fff;opacity:0;}.b{fill:#f8d0d4;}.b,.c{fill-rule:evenodd;}.c{fill:#fc5555;}</style></defs><g transform="translate(-1455 -359)"><g transform="translate(19 -798)"><rect class="a" width="160" height="130" transform="translate(1436 1157)"/></g><g transform="translate(-202.936 -138.145)"><path class="b" d="M41.854,81.709A38.854,38.854,0,1,1,80.709,42.854,38.854,38.854,0,0,1,41.854,81.709Z" transform="translate(1696.081 511.145)"/><path class="c" d="M15.057,7.5h.365A2.159,2.159,0,0,1,17.57,9.444l1.964,19.642,17.51.571a2.159,2.159,0,0,1,1.088,1.874v.906a1.649,1.649,0,0,1-2.083,1.591l-23.429,2a2.159,2.159,0,0,1-1.584-2.248l1.868-24.29A2.159,2.159,0,0,1,15.057,7.5Z" transform="translate(1722.719 522.755)"/></g></g></svg>