<svg xmlns="http://www.w3.org/2000/svg" xmlns:xlink="http://www.w3.org/1999/xlink" width="160" height="130" viewBox="0 0 160 130"><defs><style>.a{fill:none;}.b{fill:#1d1d1b;}.c{fill:#fbcd4f;}.d{fill:#fff;opacity:0;}.e{isolation:isolate;}.f{clip-path:url(#a);}.g{clip-path:url(#b);}.h{clip-path:url(#c);}.i{clip-path:url(#d);}.j{clip-path:url(#e);}.k{clip-path:url(#f);}</style><clipPath id="a"><path class="a" d="M501.462,215.548,472.49,198.9l19.122-8.514,28.972,16.643Z" transform="translate(-472.49 -190.391)"/></clipPath><clipPath id="b"><path class="a" d="M599.727,181.664l-28.641-16.617,13.519-6.3,28.641,16.617Z" transform="translate(-571.087 -158.743)"/></clipPath><clipPath id="c"><path class="b" d="M606.366,334.243l.164-39,18.761-7.995-.164,39Z" transform="translate(-606.366 -287.25)"/></clipPath><clipPath id="d"><path class="a" d="M710.387,291.3l.188-39.1,16.009-7.235-.188,39.1Z" transform="translate(-710.387 -244.962)"/></clipPath><clipPath id="e"><path class="c" d="M468.079,290.32l.148-40.62,26.158,14.922-.148,40.62Z" transform="translate(-468.079 -249.699)"/></clipPath><clipPath id="f"><path class="a" d="M480.2,383.741l.23-10.67,19.671,11.1-.23,10.67Z" transform="translate(-480.198 -373.072)"/></clipPath></defs><g transform="translate(-806 -1340)"><rect class="d" width="160" height="130" transform="translate(806 1340)"/><g transform="translate(854.164 1356.856)"><g transform="translate(2.006 4.219)"><g transform="translate(0 0)"><g class="e"><g class="f"><g transform="translate(1.804 2.184)"><path class="b" d="M507.916,217.914a1.432,1.432,0,0,1-1.132-.131l-6.387-3.669c-.344-.2-.394-.458-.112-.583l6.577-2.928a4.548,4.548,0,0,1,1.931-.34,9.574,9.574,0,0,1,2.372.358,9.981,9.981,0,0,1,2.348.974,4.391,4.391,0,0,1,1.476,1.257,1.478,1.478,0,0,1,.281,1.269,1.639,1.639,0,0,1-1.011.97l-6.344,2.824M495.8,210.993a1.322,1.322,0,0,1-1.043-.12l-6.154-3.536c-.318-.183-.365-.425-.1-.541l5.879-2.617a4.375,4.375,0,0,1,1.768-.33,8.488,8.488,0,0,1,2.2.31,9.423,9.423,0,0,1,2.271.945,4.7,4.7,0,0,1,1.573,1.3,1.306,1.306,0,0,1,.246,1.181,1.612,1.612,0,0,1-.956.882l-5.681,2.529m-4.5-10.354-9.9,4.406c-1.55.69-1.274,2.131.617,3.217l22.121,12.707c1.891,1.086,4.684,1.409,6.234.718l8.659-3.855a7.028,7.028,0,0,0,2.971-2.2,2.588,2.588,0,0,0,.281-2.685,6.952,6.952,0,0,0-3.064-2.816,18.6,18.6,0,0,0-5.921-2.191,16.5,16.5,0,0,0-5.879-.088,2.337,2.337,0,0,0-.233-2.725,9.244,9.244,0,0,0-3.089-2.661,19.066,19.066,0,0,0-4.181-1.737,18.865,18.865,0,0,0-4.648-.761,8.943,8.943,0,0,0-3.972.667" transform="translate(-480.399 -199.965)"/></g></g></g></g></g><g transform="translate(24.495 -3)"><g class="e"><g class="g"><g transform="translate(1.742 5)"><path class="b" d="M579.3,180.887c-1,.468-.665,1.531.784,2.4L601.859,196.4c1.721,1.036,4.134,1.45,5.391.924l10.2-4.259.057-.025c.88-.41.582-1.342-.69-2.107a5.312,5.312,0,0,0-4.067-.7l-8.56,3.574L584,181.654a6.063,6.063,0,0,0-4.639-.8l-.064.028" transform="translate(-578.723 -180.663)"/></g></g></g></g><g transform="translate(32.543 26.312)"><g class="e"><g class="h"><g transform="translate(0.02 3.854)"><path class="b" d="M611.728,338.395c-.556.237-1-.374-1-1.364l.093-22.119a2.552,2.552,0,0,1,1.015-2.223l2.695-1.148a3.461,3.461,0,0,1,3.511.123,6.35,6.35,0,0,1,2.2,3.556,22.276,22.276,0,0,1,.743,6.344,30.809,30.809,0,0,1-.784,6.942,18,18,0,0,1-2.225,5.553,7.918,7.918,0,0,1-3.556,3.188l-2.695,1.148m2.831-33.5-5.285,2.252c-1.477.63-2.685,3.273-2.7,5.9l-.124,29.471c-.011,2.632,1.178,4.253,2.656,3.623l5.285-2.252a13.558,13.558,0,0,0,5.734-4.855,26.506,26.506,0,0,0,3.778-8.409,42.234,42.234,0,0,0,1.37-10.893,31.815,31.815,0,0,0-1.161-9.292,9.624,9.624,0,0,0-3.581-5.492q-2.4-1.581-5.976-.057" transform="translate(-606.454 -304.146)"/></g></g></g></g><g transform="translate(56.269 16.666)"><g transform="translate(0 0)"><g class="e"><g class="i"><g transform="translate(0.018 2.669)"><path class="b" d="M714.993,278.55c-.2.09-.356-.136-.355-.5l.055-11.337a.968.968,0,0,1,.361-.827l4.593-2.076a1.209,1.209,0,0,1,1.375.2,3.881,3.881,0,0,1,1.042,1.754,9.736,9.736,0,0,1,.4,3.09,15.432,15.432,0,0,1-.371,3.355,10.977,10.977,0,0,1-.961,2.714,3.123,3.123,0,0,1-1.368,1.471l-4.77,2.156m4.952-21.527-7.263,3.283c-1.13.511-2.054,2.625-2.064,4.725l-.151,31.5c-.01,2.1.9,3.386,2.028,2.876s2.054-2.625,2.064-4.725l.043-8.891a.6.6,0,0,1,.226-.518l3.742-1.691c.078-.035.149.007.189.113l3.645,9.528c.345.9.966,1.269,1.636.966,1.5-.68,2.444-4.152,1.676-6.187l-2.853-7.555a.768.768,0,0,1,.1-.639,15.165,15.165,0,0,0,1.8-3.256,23.22,23.22,0,0,0,1.339-4.59,27.445,27.445,0,0,0,.482-4.971,19.831,19.831,0,0,0-.466-4.516,11.873,11.873,0,0,0-1.373-3.555,4.875,4.875,0,0,0-2.121-2.009,3.157,3.157,0,0,0-2.678.112" transform="translate(-710.467 -256.664)"/></g></g></g></g></g><g transform="translate(-2 21.747)"><g transform="translate(0 0)"><g class="e"><g class="j"><g transform="translate(0.014 0.847)"><path class="c" d="M492.733,266.52l-22.761-12.984c-.938-.535-1.7.746-1.712,2.862l-.12,32.958c-.008,2.116.746,4.265,1.685,4.8l22.761,12.984c.938.535,1.7-.746,1.713-2.862l.12-32.958c.008-2.116-.746-4.265-1.685-4.8" transform="translate(-468.14 -253.414)"/></g></g></g></g></g><g transform="translate(0.764 49.887)"><g transform="translate(0)"><g class="e"><g class="k"><g transform="translate(0.083 3.767)"><path class="b" d="M482.6,389.766a1.03,1.03,0,0,0-.823-.142,1.2,1.2,0,0,0-.636.5,3.057,3.057,0,0,0-.417,1.021,6.789,6.789,0,0,0-.167,1.423,8.885,8.885,0,0,0,.106,1.57,8.115,8.115,0,0,0,.366,1.477,5.287,5.287,0,0,0,.6,1.207,2.462,2.462,0,0,0,.809.777.969.969,0,0,0,1.069.049,1.773,1.773,0,0,0,.663-1.055l-.917-1.1a.767.767,0,0,1-.315.464.44.44,0,0,1-.477-.007,1.131,1.131,0,0,1-.372-.377,2.748,2.748,0,0,1-.3-.644,4.966,4.966,0,0,1-.193-.839,5.681,5.681,0,0,1-.058-.967,4.578,4.578,0,0,1,.094-.881,1.9,1.9,0,0,1,.221-.6.64.64,0,0,1,.318-.288.453.453,0,0,1,.387.05,1.221,1.221,0,0,1,.435.472,2.975,2.975,0,0,1,.305.822l.942-.053a6.227,6.227,0,0,0-.612-1.76,2.713,2.713,0,0,0-1.028-1.121" transform="translate(-480.56 -389.588)"/><path class="b" d="M499.23,405.4a1.143,1.143,0,0,1-.379-.381,2.715,2.715,0,0,1-.3-.643,4.8,4.8,0,0,1-.19-.829,5.765,5.765,0,0,1-.055-.96,4.385,4.385,0,0,1,.095-.865,2,2,0,0,1,.221-.6.667.667,0,0,1,.318-.3.428.428,0,0,1,.387.041,1.154,1.154,0,0,1,.38.383,2.751,2.751,0,0,1,.3.641,4.79,4.79,0,0,1,.19.839,5.8,5.8,0,0,1,.055.949,4.494,4.494,0,0,1-.095.881,2.012,2.012,0,0,1-.221.6.643.643,0,0,1-.319.3.454.454,0,0,1-.387-.052m.134-6.186a1.033,1.033,0,0,0-.822-.142,1.18,1.18,0,0,0-.632.512,3.194,3.194,0,0,0-.414,1.029,6.8,6.8,0,0,0-.168,1.422,9.03,9.03,0,0,0,.1,1.563,8.073,8.073,0,0,0,.36,1.465,5.22,5.22,0,0,0,.6,1.2,2.459,2.459,0,0,0,.809.777,1.042,1.042,0,0,0,.823.145,1.171,1.171,0,0,0,.628-.514,3.27,3.27,0,0,0,.411-1.031,6.725,6.725,0,0,0,.167-1.411,9.113,9.113,0,0,0-.1-1.574,8.1,8.1,0,0,0-.36-1.465,5.249,5.249,0,0,0-.592-1.2,2.421,2.421,0,0,0-.806-.777" transform="translate(-493.501 -396.88)"/><path class="b" d="M517.556,408.573a1.225,1.225,0,0,1-.411-.407,2.834,2.834,0,0,1-.312-.657,4.862,4.862,0,0,1-.2-.827,5.219,5.219,0,0,1-.059-.924,4.45,4.45,0,0,1,.089-.824,2.393,2.393,0,0,1,.215-.63.713.713,0,0,1,.319-.339.418.418,0,0,1,.4.034.959.959,0,0,1,.284.278,2.911,2.911,0,0,1,.269.466,4.109,4.109,0,0,1,.225.594,4.666,4.666,0,0,1,.147.673l-.039,1.8a1.485,1.485,0,0,1-.157.422,1.031,1.031,0,0,1-.225.282.492.492,0,0,1-.268.119.468.468,0,0,1-.28-.064m2.048-7.98-.951-.537-.093,4.3a5.212,5.212,0,0,0-.491-1.343,2.016,2.016,0,0,0-.733-.823.746.746,0,0,0-.673-.074,1.179,1.179,0,0,0-.543.54,3.773,3.773,0,0,0-.371,1.047,7.585,7.585,0,0,0-.158,1.457,9.6,9.6,0,0,0,.1,1.61,8.512,8.512,0,0,0,.339,1.453,5,5,0,0,0,.542,1.153,2.108,2.108,0,0,0,.7.7.767.767,0,0,0,.743.047,1.28,1.28,0,0,0,.581-.773l.011.487a2.031,2.031,0,0,0,.17.782,1.019,1.019,0,0,0,.413.5,1.228,1.228,0,0,0,.407.128l.036-1.644a.432.432,0,0,1-.168-.242,1.6,1.6,0,0,1-.04-.46l.179-8.3" transform="translate(-507.598 -397.668)"/><path class="b" d="M536.009,423.23a3.091,3.091,0,0,1,.112-.71,1.442,1.442,0,0,1,.222-.473.57.57,0,0,1,.3-.216.488.488,0,0,1,.362.067,1.673,1.673,0,0,1,.653.885,4.438,4.438,0,0,1,.279,1.537l-1.93-1.089m1.043-2.725a1.044,1.044,0,0,0-.826-.144,1.177,1.177,0,0,0-.64.508,3.123,3.123,0,0,0-.417,1.034,6.976,6.976,0,0,0-.167,1.444,8.882,8.882,0,0,0,.106,1.564,7.867,7.867,0,0,0,.368,1.462,5.153,5.153,0,0,0,.6,1.19,2.45,2.45,0,0,0,.8.767,1,1,0,0,0,1.088.053,1.816,1.816,0,0,0,.687-1.051l-.806-.922a.8.8,0,0,1-.361.549.53.53,0,0,1-.542-.021,1.166,1.166,0,0,1-.352-.33,2.487,2.487,0,0,1-.3-.548,3.937,3.937,0,0,1-.206-.715,5.124,5.124,0,0,1-.09-.854l2.874,1.622a2.592,2.592,0,0,0,.024-.278c0-.115.008-.234.011-.36a9.071,9.071,0,0,0-.1-1.543,7.693,7.693,0,0,0-.356-1.457,5.288,5.288,0,0,0-.593-1.2,2.416,2.416,0,0,0-.8-.776" transform="translate(-522.582 -413.315)"/><path class="b" d="M554.311,429.649a1,1,0,0,0-.582-.153.734.734,0,0,0-.476.234,1.473,1.473,0,0,0-.326.613,3.692,3.692,0,0,0-.133.975,3.877,3.877,0,0,0,.055.783,2.755,2.755,0,0,0,.215.676,3.558,3.558,0,0,0,.4.659q.251.333.608.737a7.115,7.115,0,0,1,.616.787,1.225,1.225,0,0,1,.179.7.653.653,0,0,1-.177.526c-.112.084-.263.07-.452-.036a2.115,2.115,0,0,1-.636-.614,7.346,7.346,0,0,1-.648-1.117l-.381,1.012a5.371,5.371,0,0,0,.748,1.3,3.194,3.194,0,0,0,.909.819q.7.393,1.114-.019A2.207,2.207,0,0,0,555.79,436a4.118,4.118,0,0,0-.064-.861,3.165,3.165,0,0,0-.243-.744,4.117,4.117,0,0,0-.437-.713c-.18-.239-.4-.5-.648-.775-.136-.144-.248-.273-.34-.389a2.509,2.509,0,0,1-.219-.321,1.139,1.139,0,0,1-.119-.3,1.416,1.416,0,0,1-.032-.354c.006-.3.065-.484.177-.558a.379.379,0,0,1,.41.026,1.792,1.792,0,0,1,.524.5,5.564,5.564,0,0,1,.536.945l.408-.95a4.74,4.74,0,0,0-.654-1.172,2.725,2.725,0,0,0-.778-.688" transform="translate(-536.15 -420.391)"/></g></g></g></g></g><rect class="a" width="100.537" height="100.537" transform="translate(-16.164 -11.124)"/></g></g></svg>