<svg xmlns="http://www.w3.org/2000/svg" width="72.592" height="72.592" viewBox="0 0 72.592 72.592"><defs><style>.a{fill:#e1e1e2;}</style></defs><path class="a" d="M36.3,8a36.3,36.3,0,1,0,36.3,36.3A36.29,36.29,0,0,0,36.3,8Zm0,14.05A12.879,12.879,0,1,1,23.417,34.929,12.879,12.879,0,0,1,36.3,22.05Zm0,50.346a28.046,28.046,0,0,1-21.441-9.981,16.318,16.318,0,0,1,14.416-8.752,3.581,3.581,0,0,1,1.039.161,19.378,19.378,0,0,0,5.986,1.01,19.3,19.3,0,0,0,5.986-1.01,3.581,3.581,0,0,1,1.039-.161,16.318,16.318,0,0,1,14.416,8.752A28.046,28.046,0,0,1,36.3,72.4Z" transform="translate(0 -8)"/></svg>