<svg xmlns="http://www.w3.org/2000/svg" width="160" height="130" viewBox="0 0 160 130"><defs><style>.a{fill:#fff;opacity:0;}.b{fill:#f9d677;opacity:0.4;}.b,.c{fill-rule:evenodd;}.c,.d{fill:#f7b500;}.d{opacity:0.3;}</style></defs><g transform="translate(-1226 -1157)"><rect class="a" width="160" height="130" transform="translate(1226 1157)"/><g transform="translate(1260.863 1172.088)"><path class="b" d="M19.3,3V4.913a5.739,5.739,0,0,0,5.739,5.739H44.17a5.739,5.739,0,0,0,5.739-5.739V3H57.56a7.651,7.651,0,0,1,7.651,7.651V71.863a7.651,7.651,0,0,1-7.651,7.651H11.651A7.651,7.651,0,0,1,4,71.863V10.651A7.651,7.651,0,0,1,11.651,3Z" transform="translate(10.468 8.269)"/><path class="c" d="M16.651,4.826a3.826,3.826,0,0,1,7.651,0h5.739a1.913,1.913,0,0,1,1.913,1.913v3.826a1.913,1.913,0,0,1-1.913,1.913H10.913A1.913,1.913,0,0,1,9,10.564V6.739a1.913,1.913,0,0,1,1.913-1.913Z" transform="translate(24.597 -0.383)"/><rect class="d" width="26.78" height="7.651" rx="1" transform="translate(37.423 31.223)"/><rect class="d" width="7.651" height="7.651" rx="1" transform="translate(25.945 31.223)"/><rect class="d" width="7.651" height="7.651" rx="1" transform="translate(25.945 49.526)"/><rect class="d" width="26.78" height="7.651" rx="1" transform="translate(37.423 49.526)"/><rect class="d" width="7.651" height="7.651" rx="1" transform="translate(25.945 67.828)"/><rect class="d" width="26.78" height="7.651" rx="1" transform="translate(37.423 67.828)"/></g></g></svg>