<svg xmlns="http://www.w3.org/2000/svg" width="160" height="130" viewBox="0 0 160 130"><defs><style>.a{fill:#fff;opacity:0;}.b{fill:#87c5ff;opacity:0.3;}.b,.c{fill-rule:evenodd;}.c{fill:#3598f4;}</style></defs><g transform="translate(-108 -702)"><g transform="translate(-68 -455)"><rect class="a" width="160" height="130" transform="translate(176 1157)"/></g><path class="b" d="M9.189,2H59.457c2.314,0,4.189,2.292,4.189,5.119V53.192c0,2.827-1.875,5.119-4.189,5.119H9.189C6.875,58.311,5,56.019,5,53.192V7.119C5,4.292,6.875,2,9.189,2Zm6.284,15.358a2.362,2.362,0,0,0-2.095,2.56,2.362,2.362,0,0,0,2.095,2.56H40.607a2.362,2.362,0,0,0,2.095-2.56,2.362,2.362,0,0,0-2.095-2.56Zm0,10.238a2.362,2.362,0,0,0-2.095,2.56,2.362,2.362,0,0,0,2.095,2.56H28.04a2.362,2.362,0,0,0,2.095-2.56A2.362,2.362,0,0,0,28.04,27.6Z" transform="translate(153.945 716.957)"/><path class="c" d="M6.321,6.875,40.7,31.7l34.38-24.83a2.095,2.095,0,0,1,3.321,1.7V50.556a8.378,8.378,0,0,1-8.378,8.378H11.378A8.378,8.378,0,0,1,3,50.556V8.573a2.095,2.095,0,0,1,3.321-1.7Z" transform="translate(147.567 741.469)"/></g></svg>