<svg xmlns="http://www.w3.org/2000/svg" xmlns:xlink="http://www.w3.org/1999/xlink" width="160" height="130" viewBox="0 0 160 130"><defs><style>.a{fill:none;stroke:#2f0068;stroke-miterlimit:10;stroke-width:1.5px;}.b{fill:url(#a);}.c,.d{fill:#fff;}.d{opacity:0;}</style><radialGradient id="a" cx="0.5" cy="0.5" r="1.365" gradientTransform="translate(0.303) scale(0.395 1)" gradientUnits="objectBoundingBox"><stop offset="0" stop-color="#4b0083"/><stop offset="0.49" stop-color="#490081"/><stop offset="0.667" stop-color="#46007a"/><stop offset="0.793" stop-color="#3f006e"/><stop offset="0.895" stop-color="#35005d"/><stop offset="0.981" stop-color="#290047"/><stop offset="1" stop-color="#260042"/></radialGradient></defs><g transform="translate(-386 -1340)"><g transform="translate(218.835 1070.433)"><path class="a" d="M296.239,304.567h-98.8c-13.408,0-24.277,10.3-24.277,23h0c0,12.7,10.869,23,24.277,23h75.325a2.681,2.681,0,0,1,2.318,1.334l5.54,9.541a2.68,2.68,0,0,0,4.68-.081l5.024-9.38a2.679,2.679,0,0,1,2.362-1.415h3.548c13.408,0,24.277-10.3,24.277-23h0C320.516,314.862,309.647,304.567,296.239,304.567Z" transform="translate(0)"/><path class="b" d="M299.713,311.645H202.49c-13.194,0-23.89,10.131-23.89,22.63h0c0,12.5,10.7,22.63,23.89,22.63h74.125a2.637,2.637,0,0,1,2.281,1.313l5.452,9.389a2.637,2.637,0,0,0,4.605-.079L293.9,358.3a2.637,2.637,0,0,1,2.325-1.392h3.492c13.194,0,23.89-10.132,23.89-22.63h0C323.6,321.776,312.907,311.645,299.713,311.645Z" transform="translate(-3.18 -4.142)"/><g transform="translate(188.039 320.433)"><g transform="translate(0 0)"><path class="c" d="M214.887,362.151a17.374,17.374,0,0,1-2.187-.125,11.306,11.306,0,0,1-1.806-.375,9.611,9.611,0,0,1-1.616-.651v-3.853a7.633,7.633,0,0,0,2.472,1.4,8.022,8.022,0,0,0,2.614.475,2.75,2.75,0,0,0,1.676-.438,1.567,1.567,0,0,0,.582-1.338,1.308,1.308,0,0,0-.535-1.088,5.137,5.137,0,0,0-1.414-.725q-.879-.313-1.973-.713a8.716,8.716,0,0,1-1.355-.576,4.681,4.681,0,0,1-1.188-.888,3.951,3.951,0,0,1-.832-1.313,5.147,5.147,0,0,1-.309-1.9,5.592,5.592,0,0,1,.356-1.976,4.756,4.756,0,0,1,1.105-1.7,5.281,5.281,0,0,1,1.913-1.189,7.766,7.766,0,0,1,2.733-.438,10.555,10.555,0,0,1,1.723.125,8.9,8.9,0,0,1,1.438.363,10.1,10.1,0,0,1,1.4.613v3.9a9.033,9.033,0,0,0-1.224-.888,8.314,8.314,0,0,0-1.414-.688,4.815,4.815,0,0,0-1.545-.3,4.119,4.119,0,0,0-1.307.15,1.889,1.889,0,0,0-.927.563,1.669,1.669,0,0,0,.071,2.089,3.069,3.069,0,0,0,1.117.663q.713.263,1.593.563a16.317,16.317,0,0,1,1.794.663,5.48,5.48,0,0,1,1.438.913,3.674,3.674,0,0,1,.951,1.351,5.017,5.017,0,0,1,.333,1.926,5.7,5.7,0,0,1-.665,2.739,4.848,4.848,0,0,1-1.925,1.952A6.193,6.193,0,0,1,214.887,362.151Z" transform="translate(-209.017 -343.938)"/><path class="c" d="M245.684,367.787a5.823,5.823,0,0,1-4.575-1.714,7.339,7.339,0,0,1-1.533-5.041q0-3.577,1.557-5.141a6.151,6.151,0,0,1,4.551-1.564,7.27,7.27,0,0,1,3.387.713,4.627,4.627,0,0,1,2.067,2.189,8.9,8.9,0,0,1,.7,3.8,7.157,7.157,0,0,1-1.592,5.041A5.922,5.922,0,0,1,245.684,367.787Zm0-2.977a2.363,2.363,0,0,0,1.462-.438,2.647,2.647,0,0,0,.88-1.276,6.228,6.228,0,0,0,.3-2.064,6.649,6.649,0,0,0-.3-2.214,2.2,2.2,0,0,0-.891-1.176,2.733,2.733,0,0,0-1.45-.363,2.634,2.634,0,0,0-1.473.375,2.2,2.2,0,0,0-.844,1.188,7.083,7.083,0,0,0-.273,2.189,5.147,5.147,0,0,0,.63,2.84A2.2,2.2,0,0,0,245.684,364.809Z" transform="translate(-226.898 -349.548)"/><path class="c" d="M277.827,368.386a7.419,7.419,0,0,1-2.947-.551,4.283,4.283,0,0,1-2-1.689,5.513,5.513,0,0,1-.713-2.965v-7.83h3.541v7.53a2.669,2.669,0,0,0,.511,1.789,2.564,2.564,0,0,0,3.268,0,2.714,2.714,0,0,0,.5-1.789v-7.53h3.327v7.83a4.907,4.907,0,0,1-1.473,3.953A6.007,6.007,0,0,1,277.827,368.386Z" transform="translate(-245.97 -350.148)"/><path class="c" d="M303.735,355.934a8.234,8.234,0,0,1,1.189-.513,14.248,14.248,0,0,1,1.616-.463q.879-.2,1.771-.325a12,12,0,0,1,1.652-.125,7.714,7.714,0,0,1,2.757.438,3.441,3.441,0,0,1,1.747,1.413,5,5,0,0,1,.606,2.652v8.506h-3.541v-7.755a2.822,2.822,0,0,0-.131-.876,1.879,1.879,0,0,0-.392-.688,1.738,1.738,0,0,0-.713-.45,3.246,3.246,0,0,0-1.093-.163,4.485,4.485,0,0,0-1.093.137,3.89,3.89,0,0,0-.832.288v9.507h-3.541Z" transform="translate(-264.438 -349.654)"/><path class="c" d="M340.537,361.047a9.68,9.68,0,0,1-2.578-.325,5,5,0,0,1-2.032-1.089,5.071,5.071,0,0,1-1.343-2.089,9.645,9.645,0,0,1-.487-3.3,7.5,7.5,0,0,1,1.438-4.853,5.221,5.221,0,0,1,4.313-1.776q.38,0,1,.063a5.124,5.124,0,0,1,1.283.313,2.949,2.949,0,0,1,1.189.851l-.713,1.151v-7.18h3.517v14.56a2.772,2.772,0,0,1-.475,1.614,3.772,3.772,0,0,1-1.272,1.138,6.83,6.83,0,0,1-1.794.688A8.792,8.792,0,0,1,340.537,361.047Zm.143-3.127a3.446,3.446,0,0,0,1.39-.238.764.764,0,0,0,.535-.713V351.14a3.927,3.927,0,0,0-.915-.388,3.455,3.455,0,0,0-.939-.138,3.7,3.7,0,0,0-1.687.35,2.209,2.209,0,0,0-1.034,1.176,5.9,5.9,0,0,0-.345,2.227,5.556,5.556,0,0,0,.286,1.889,2.418,2.418,0,0,0,.938,1.226A3.14,3.14,0,0,0,340.679,357.92Z" transform="translate(-282.203 -342.809)"/></g></g><g transform="translate(254.5 320.969)"><g transform="translate(0 0)"><path class="c" d="M369.209,361.414V344.1h6.978a9.131,9.131,0,0,1,3.119.48,4.2,4.2,0,0,1,2.059,1.531,4.756,4.756,0,0,1,.739,2.79,3.209,3.209,0,0,1-.542,1.921,4.33,4.33,0,0,1-1.307,1.207,9.777,9.777,0,0,1-1.43.714l-.444-.908a5.564,5.564,0,0,1,2.38.584,4,4,0,0,1,1.6,1.479,4.268,4.268,0,0,1,.58,2.271,4.993,4.993,0,0,1-.826,2.972,4.913,4.913,0,0,1-2.207,1.713,8.088,8.088,0,0,1-3.058.558ZM373.2,350.9h3.206a1.874,1.874,0,0,0,.789-.169,1.4,1.4,0,0,0,.6-.532,1.75,1.75,0,0,0,.234-.96,1.722,1.722,0,0,0-.542-1.467,2.175,2.175,0,0,0-1.331-.4H373.2Zm0,7.268h3.354a3.207,3.207,0,0,0,1.134-.195,1.717,1.717,0,0,0,.839-.675,2.285,2.285,0,0,0,.32-1.285,2.176,2.176,0,0,0-.2-.986,1.564,1.564,0,0,0-.53-.61,2.393,2.393,0,0,0-.752-.324,3.7,3.7,0,0,0-.888-.1H373.2Z" transform="translate(-369.209 -344.102)"/><path class="c" d="M411.433,367.075a6.042,6.042,0,0,1-4.747-1.778,7.614,7.614,0,0,1-1.59-5.23q0-3.712,1.615-5.334a6.383,6.383,0,0,1,4.722-1.622,7.538,7.538,0,0,1,3.514.74,4.8,4.8,0,0,1,2.145,2.271,9.232,9.232,0,0,1,.727,3.945,7.425,7.425,0,0,1-1.652,5.23A6.145,6.145,0,0,1,411.433,367.075Zm0-3.089a2.453,2.453,0,0,0,1.516-.454,2.749,2.749,0,0,0,.912-1.324,6.461,6.461,0,0,0,.308-2.141,6.9,6.9,0,0,0-.308-2.3,2.281,2.281,0,0,0-.925-1.22,2.837,2.837,0,0,0-1.5-.376,2.737,2.737,0,0,0-1.529.389,2.279,2.279,0,0,0-.875,1.233,7.339,7.339,0,0,0-.283,2.271,5.338,5.338,0,0,0,.653,2.946A2.277,2.277,0,0,0,411.433,363.986Z" transform="translate(-390.207 -349.373)"/><path class="c" d="M442.027,362.065l-3.4,5.243h-3.871l5.6-7.709Zm6.115,5.243h-4.364l-8.9-13.133h4.34Zm-7.2-7.761,3.5-5.373h3.9l-5.721,7.891Z" transform="translate(-407.56 -349.995)"/></g></g><g transform="translate(296.9 321.247)"><path class="c" d="M486.15,379.64a.726.726,0,0,1-.726-.727v-3.634a.727.727,0,0,1,1.453,0v3.634A.727.727,0,0,1,486.15,379.64Z" transform="translate(-479.609 -362.197)"/><path class="c" d="M485.786,376.759a6.538,6.538,0,0,0,1.09-.1v-.989a.725.725,0,0,0-.167-.451,5.1,5.1,0,0,1-.923.087h-.247a.724.724,0,0,0-.116.378v1.068Z" transform="translate(-479.609 -362.587)"/><path class="c" d="M475.042,352.767v-5.088a2.907,2.907,0,0,1,5.815,0v5.088a2.907,2.907,0,0,1-5.815,0Zm5.815,8.721a.727.727,0,0,0-.727-.726h-4.361a.727.727,0,1,0,0,1.453h4.361A.727.727,0,0,0,480.856,361.488Zm3.634-9.448a.727.727,0,1,0-1.454,0,5.087,5.087,0,1,1-10.175,0,.727.727,0,1,0-1.454,0,6.541,6.541,0,0,0,13.083,0Z" transform="translate(-471.408 -344.772)"/></g></g><rect class="d" width="160" height="130" transform="translate(386 1340)"/></g></svg>