<svg xmlns="http://www.w3.org/2000/svg" width="160" height="130" viewBox="0 0 160 130"><defs><style>.a{fill:#fff;opacity:0;}.b{fill:#e4a6f5;opacity:0.58;}.c{fill:#b620e0;}</style></defs><g transform="translate(-1016 -1157)"><rect class="a" width="160" height="130" transform="translate(1016 1157)"/><g transform="translate(605 479)"><g transform="translate(-14.855 27.889)"><path class="b" d="M0,67.816a7.413,7.413,0,0,0,7.587,7.221h55.64a7.413,7.413,0,0,0,7.587-7.221V26.9H0ZM50.582,38.332a1.858,1.858,0,0,1,1.9-1.805H58.8a1.858,1.858,0,0,1,1.9,1.805v6.017a1.858,1.858,0,0,1-1.9,1.805H52.479a1.858,1.858,0,0,1-1.9-1.805Zm0,19.255a1.858,1.858,0,0,1,1.9-1.805H58.8a1.858,1.858,0,0,1,1.9,1.805V63.6a1.858,1.858,0,0,1-1.9,1.805H52.479a1.858,1.858,0,0,1-1.9-1.805ZM30.349,38.332a1.858,1.858,0,0,1,1.9-1.805h6.323a1.858,1.858,0,0,1,1.9,1.805v6.017a1.858,1.858,0,0,1-1.9,1.805H32.246a1.858,1.858,0,0,1-1.9-1.805Zm0,19.255a1.858,1.858,0,0,1,1.9-1.805h6.323a1.858,1.858,0,0,1,1.9,1.805V63.6a1.858,1.858,0,0,1-1.9,1.805H32.246a1.858,1.858,0,0,1-1.9-1.805ZM10.116,38.332a1.858,1.858,0,0,1,1.9-1.805h6.323a1.858,1.858,0,0,1,1.9,1.805v6.017a1.858,1.858,0,0,1-1.9,1.805H12.013a1.858,1.858,0,0,1-1.9-1.805Zm0,19.255a1.858,1.858,0,0,1,1.9-1.805h6.323a1.858,1.858,0,0,1,1.9,1.805V63.6a1.858,1.858,0,0,1-1.9,1.805H12.013a1.858,1.858,0,0,1-1.9-1.805Z" transform="translate(470.855 677.094)"/><path class="c" d="M63.227,9.627H55.64V2.407A2.478,2.478,0,0,0,53.111,0H48.053a2.478,2.478,0,0,0-2.529,2.407V9.627H25.291V2.407A2.478,2.478,0,0,0,22.762,0H17.7a2.478,2.478,0,0,0-2.529,2.407V9.627H7.587A7.413,7.413,0,0,0,0,16.848v7.221H70.815V16.848A7.413,7.413,0,0,0,63.227,9.627Z" transform="translate(470.855 675.111)"/></g></g></g></svg>